<?xml version="1.0" encoding="iso-8859-1"?>
<!-- Generator: Adobe Illustrator 19.0.0, SVG Export Plug-In . SVG Version: 6.00 Build 0)  -->
<svg version="1.1" id="Capa_1" xmlns="http://www.w3.org/2000/svg" xmlns:xlink="http://www.w3.org/1999/xlink" x="0px" y="0px"
	 viewBox="0 0 488.152 488.152" style="enable-background:new 0 0 488.152 488.152;" xml:space="preserve" fill="pink">
<g>
	<g>
		<path d="M189.226,201.752c-5.2-3.5-12.1-3.9-18.2,2.8c-5.6,6.1-6.8,13.6-3,18.7c6.8,9.3,13.6,18.8,21.9,26.7
			c13.3,12.8,27.7,24.4,41.7,36.4l1,2.1v0.1c2.2,4.3,7.4,6,11.7,3.8l7.5-3.9c30.2-15.4,49.1-43.2,73.9-64.6c1.1-1,0.3-5.1-0.9-7.3
			c-2.4-4.5-6.7-6.1-10.9-6.3c-13.9-0.7-25.1,4.1-34.1,11.4c-7.4,6-15,12-22.4,18c0.9-8.9,1.5-17.8,1.3-26.6
			c-0.4-24.5-2.4-48.9-3.7-73.4c11.5-43.8,4.9-88.7,7.3-133c0.1-2-3.4-5.1-5.8-6c-4.9-1.9-9,0.6-12.1,4.3
			c-10.3,12.4-14.8,27.4-16,42.7c-2.9,36.8-7.3,73.6-4,110.7c-0.4,4.6-0.8,9.2-1.1,13.7c-1.1,19.6-1.7,39.3-0.7,58.8
			C212.526,220.152,201.626,210.152,189.226,201.752z"/>
		<path d="M15.126,307.752l-0.1,0.2c-0.4,1.3-0.5,2.8-0.5,4.2l0.2,39.9l0.2,20l0.1,10v2.5l0.2,3l0.4,5.9c3,31.5,21.7,61,48.8,76.7
			c13.5,8,28.5,12.9,44.7,13.8l5,0.2h1.2h1.4h0.6h2.5l10-0.1l19.9-0.3l79.8-1.1c28.5,1.7,57,3,85.6,4c14.3,0.4,28.6,0.8,43,1.3
			l10.9,0.2c4.3-0.2,8.7,0,13.1-0.7l6.5-0.9c2.2-0.4,4.3-1,6.4-1.5c4.3-0.9,8.4-2.5,12.6-3.9c16.4-6.4,31.1-17.2,42.4-30.8
			c2.7-3.5,5.5-6.9,7.7-10.8c1.1-1.9,2.4-3.8,3.4-5.7l2.9-6c2-4,3.3-8.2,4.9-12.4l1.7-6.4l0.8-3.2l0.6-3.6l1-7.2
			c0.3-2.2,0.2-3.7,0.4-5.6l0.1-2.7l0.1-2.4v-1.4v-5.4v-21.6l-0.1-43.3v-0.2c0-1.7-0.2-3.4-0.7-5.1c-16.1-57.6-32.3-115.2-48-172.8
			c-1.5-5.3-5.2-10.1-10.7-12.6l-0.2-0.1l-1.4-0.6c-2.4-1.1-5.1-1.7-7.9-1.8h-0.3c-19-0.2-37.9-0.3-56.7-0.5
			c-8.6-0.1-22.2,3.4-26.5,5.8c-8.5,4.9,2.5,9,19,12.1c18.5,3.5,38.4,6.3,59.5,8.6c6.3,36.6,15,75.6,25.1,114.7l13.8,53.9
			c-21.9-9.7-48.1-14-74.9-15.2l-34.9-1.6c-8.1-0.4-15,5.9-15.4,14l-0.1,1.4l-0.5,10.2l-0.1,1.3v0.6v0.2c0-0.3,0,0.8,0-0.8l0,0v0.1
			v0.3l-0.2,2.6c-0.1,2.1-0.5,2.5-0.6,3.3c-1,3.8-3,8.2-5.7,11.4c-5.5,6.7-13.6,10.8-21.8,11c-1.5,0.1-5.5,0-8.8-0.1l-10.3-0.1
			h-20.6c-13.7,0.1-27.4,0.5-41.2,1.1l-3.1-0.1l-1.5-0.1h-0.4l0,0l0,0c-0.2,0,1.7,0,0.9,0l0,0l0,0h-0.1h-0.2l-0.8-0.1l-3.1-0.3
			c-0.6,0-0.8-0.1-1-0.2l-0.6-0.2c-0.7-0.1-2-0.6-3.1-1c-1.1-0.5-2.3-0.9-3.4-1.5c-5.8-2.9-10.5-8-12.9-13.8c-1.2-2.9-2-6-2.2-9.1
			c0-0.8,0-1.6-0.1-2.4v-4.1v-8.2v-0.1c0-11.1-9-20.1-20.1-20.1h-0.1c-30.3,0-60.5,0.8-90.7,3.2c-1.6,0.1-3.2,0.3-4.8,0.5
			c12.7-46.7,25-93.5,36.7-140.3c3.3-0.1,6.7-0.2,10-0.3c36-1.2,65.9-5.8,63.2-14.8c-2.4-8.3-28-14.4-64.9-15.3
			c-7-0.2-14-0.4-21-0.6c-1.7,0-3.4,0.3-5,1l-0.7,0.3l-1.4,0.6c-3.4,1.5-6.2,4.4-7.4,8.2l-0.2,0.7c-17.2,56.4-34.4,113.2-50,170.1
			L15.126,307.752z M51.126,378.652l0.1-22.2v-32.3c3.2,0.9,6.7,1.4,10.6,1.7c24.5,1.6,49.3,3.2,73.9,3.3v0.1
			c0.6,6.9,2.3,13.8,5.1,20.2c5.7,12.7,15.7,23.2,27.8,29.5c6.2,3.1,12.5,5.2,19.6,6.2l2.8,0.3c0.9,0.1,2,0.2,2.5,0.2l3.9,0.1h1h0.2
			h0.5h1l1.9-0.1l3.9-0.1l31.1-1c10.8,1.6,21.6,2.8,32.5,3.8l8.1,0.7l4.1,0.3c1.6,0.1,3.7,0,5.5,0c7.5-0.2,15.1-1.9,22.2-4.8
			c14.2-5.9,26.1-17.2,32.8-31.3c0.9-1.7,1.6-3.5,2.3-5.4c0.7-1.8,1.4-3.7,1.8-5.6c0.5-1.9,1-3.6,1.4-6l0.5-3.3c0-0.2,0-0.3,0.1-0.5
			c29.8-0.2,59.6-0.5,89.2,0.3c0.2,0,0.5,0,0.7-0.1l-0.6,32.8l-0.3,13.3l-0.1,3.3v1.3v0.4l-0.1,0.8l-0.5,6.6c-0.2,2-0.6,3.2-0.9,4.9
			c-0.2,1.5-0.7,3.2-1.2,4.9c-0.8,3.5-2.3,6.7-3.6,10c-6,12.8-15.8,24-28.1,30.8c-6.1,3.5-12.6,6.2-19.5,7.5
			c-1.7,0.5-3.4,0.6-5.1,0.9c-1.7,0.2-3.4,0.6-5.2,0.5l-5.3,0.2l-6.7-0.1c-71-0.8-142.2-0.8-213.5,0.6l-30.1-0.6h-0.5h-0.5l-1.9-0.1
			l-3.8-0.3c-2.9-0.1-4.1-0.6-5.8-0.9l-2.5-0.4l-2.8-0.8c-1.9-0.5-3.8-1-5.6-1.8c-21.8-7.7-38.2-27.8-42.3-50
			c-0.3-2.8-1-5.6-0.9-8.4l-0.2-4.3L51.126,378.652z"/>
	</g>
</g>
<g>
</g>
<g>
</g>
<g>
</g>
<g>
</g>
<g>
</g>
<g>
</g>
<g>
</g>
<g>
</g>
<g>
</g>
<g>
</g>
<g>
</g>
<g>
</g>
<g>
</g>
<g>
</g>
<g>
</g>
</svg>
